<svg xmlns="http://www.w3.org/2000/svg" width="27" height="22" viewBox="0 0 27 22" fill="none">
  <path d="M6.90785 19.7592L6.28535 19.3409H6.28535L6.90785 19.7592ZM7.87479 16.6601L7.12479 16.652V16.6601H7.87479ZM7.89508 14.7863L8.64508 14.7945V14.7863H7.89508ZM20.0404 19.7742L20.6708 19.368L20.6708 19.368L20.0404 19.7742ZM19.1099 16.6601L18.3599 16.6515V16.6601H19.1099ZM19.1302 14.8792L19.8802 14.8877V14.8792H19.1302ZM7.53034 20.1775C8.08272 19.3556 8.62479 18.1384 8.62479 16.6601H7.12479C7.12479 17.768 6.71704 18.6985 6.28535 19.3409L7.53034 20.1775ZM8.62474 16.6682L8.64504 14.7945L7.14513 14.7782L7.12483 16.652L8.62474 16.6682ZM20.6708 19.368C20.2568 18.7255 19.8599 17.785 19.8599 16.6601H18.3599C18.3599 18.1392 18.88 19.3581 19.41 20.1805L20.6708 19.368ZM19.8598 16.6686L19.8801 14.8877L18.3802 14.8707L18.3599 16.6515L19.8598 16.6686ZM19.8802 14.8792C19.8802 11.0214 17.0947 7.73291 13.4715 7.73291V9.23291C16.0988 9.23291 18.3802 11.6718 18.3802 14.8792H19.8802ZM19.7018 21.3926C20.3205 21.3926 20.6583 20.9125 20.7792 20.5914C20.9066 20.2532 20.9333 19.7753 20.6708 19.368L19.41 20.1805C19.3775 20.1302 19.3736 20.0913 19.3731 20.0811C19.3726 20.071 19.3739 20.067 19.3755 20.0627C19.3763 20.0606 19.3876 20.0295 19.4316 19.9904C19.4815 19.9462 19.5757 19.8926 19.7018 19.8926V21.3926ZM8.64508 14.7863C8.64508 11.6303 10.8897 9.23291 13.4715 9.23291V7.73291C9.8938 7.73291 7.14508 10.9799 7.14508 14.7863H8.64508ZM7.24213 19.8926C7.3709 19.8926 7.46612 19.9483 7.5152 19.9926C7.55834 20.0316 7.56843 20.0617 7.5685 20.0619C7.56938 20.0643 7.5705 20.0668 7.56992 20.0762C7.56935 20.0856 7.56514 20.1257 7.53034 20.1775L6.28535 19.3409C6.01046 19.7499 6.0352 20.2361 6.15954 20.5765C6.27709 20.8984 6.61354 21.3926 7.24213 21.3926V19.8926ZM19.7018 19.8926H7.24213V21.3926H19.7018V19.8926Z" fill="#E3E3E3"/>
  <path d="M1 13.4714H4.32574" stroke="#E3E3E3" stroke-width="1.5" stroke-linecap="round" stroke-linejoin="round"/>
  <path d="M4.32574 4.32568L6.6774 6.67734" stroke="#E3E3E3" stroke-width="1.5" stroke-linecap="round" stroke-linejoin="round"/>
  <path d="M22.6173 13.4714H25.943" stroke="#E3E3E3" stroke-width="1.5" stroke-linecap="round" stroke-linejoin="round"/>
  <path d="M20.123 6.67749L22.4746 4.32584" stroke="#E3E3E3" stroke-width="1.5" stroke-linecap="round" stroke-linejoin="round"/>
  <path d="M13.4716 1L13.4716 4.32574" stroke="#E3E3E3" stroke-width="1.5" stroke-linecap="round" stroke-linejoin="round"/>
</svg>