<svg xmlns="http://www.w3.org/2000/svg" width="62" height="62" viewBox="0 0 62 62" fill="none">
  <path d="M16.9047 46.4999H17.05M24.8 55.7999H24.9453M31 46.4999H31.1453M38.75 55.7999H38.8953M44.8047 46.4999H44.95M54.25 21.7C54.25 30.2604 47.3104 37.2 38.75 37.2C34.9881 37.2 29.45 37.2 29.45 37.2C29.45 37.2 23.5421 37.2 20.15 37.2C13.3017 37.2 7.75 31.6483 7.75 24.8C7.75 17.9516 13.3017 12.4 20.15 12.4C22.0738 12.4 23.8952 12.838 25.52 13.6199C28.2439 9.16956 33.1501 6.19995 38.75 6.19995C47.3104 6.19995 54.25 13.1395 54.25 21.7Z" stroke="black" stroke-width="2" stroke-linecap="round" stroke-linejoin="round"/>
</svg>