<svg xmlns="http://www.w3.org/2000/svg" width="22" height="22" viewBox="0 0 22 22" fill="none">
  <path d="M13.7502 2.19995V5.49995C13.7502 6.10746 14.2427 6.59995 14.8502 6.59995H18.1502M7.7002 6.59995H9.9002M7.7002 9.89995H14.3002M7.7002 13.2H14.3002M16.5002 3.84995C16.0106 3.41191 15.5026 2.89238 15.1819 2.55496C14.9685 2.33042 14.6736 2.19995 14.3638 2.19995H6.04994C4.83492 2.19995 3.84995 3.18492 3.84994 4.39994L3.84985 17.5999C3.84985 18.8149 4.83482 19.7999 6.04984 19.7999L15.9499 19.7999C17.1649 19.7999 18.1499 18.815 18.1499 17.6L18.1502 5.93796C18.1502 5.65669 18.0429 5.38632 17.8477 5.18382C17.4867 4.80938 16.8839 4.19326 16.5002 3.84995Z" stroke="#E3E3E3" stroke-width="1.5" stroke-linecap="round" stroke-linejoin="round"/>
</svg>