<svg xmlns="http://www.w3.org/2000/svg" width="23" height="22" viewBox="0 0 23 22" fill="none">
  <path d="M8.04229 10.045L7.86322 10.7733C8.21982 10.861 8.58746 10.6776 8.73186 10.34L8.04229 10.045ZM3.95311 10.0004C4.12199 10.3787 4.5655 10.5484 4.94373 10.3795C5.32195 10.2106 5.49166 9.7671 5.32278 9.38888L3.95311 10.0004ZM6.45567 5.36372L6.17203 4.66942L6.45567 5.36372ZM5.54499 5.1637C5.71387 5.54192 6.15738 5.71163 6.53561 5.54276C6.91383 5.37388 7.08354 4.93037 6.91466 4.55214L5.54499 5.1637ZM6.23714 3.03474C6.06827 2.65651 5.62476 2.4868 5.24653 2.65568C4.86831 2.82456 4.6986 3.26807 4.86747 3.64629L6.23714 3.03474ZM8.83863 4.53296C8.67833 4.91489 8.858 5.35447 9.23994 5.51477C9.62188 5.67507 10.0615 5.4954 10.2218 5.11346L8.83863 4.53296ZM10.8644 3.58224C11.0247 3.20031 10.845 2.76073 10.4631 2.60043C10.0812 2.44013 9.64159 2.6198 9.48129 3.00174L10.8644 3.58224ZM2.58954 5.79958C2.20286 5.65109 1.76902 5.84419 1.62053 6.23087C1.47204 6.61755 1.66514 7.0514 2.05182 7.19988L2.58954 5.79958ZM3.65264 7.8146C4.03932 7.96309 4.47317 7.76999 4.62165 7.38331C4.77014 6.99663 4.57704 6.56279 4.19036 6.4143L3.65264 7.8146ZM9.8105 6.68426C10.0975 6.98291 10.5723 6.99233 10.871 6.7053C11.1696 6.41828 11.179 5.9435 10.892 5.64485L9.8105 6.68426ZM19.95 12.4224C19.95 15.4484 17.3758 17.9581 14.1286 17.9581V19.4581C18.1407 19.4581 21.45 16.3389 21.45 12.4224H19.95ZM14.1286 6.88671C17.3758 6.88671 19.95 9.3964 19.95 12.4224H21.45C21.45 8.50593 18.1407 5.38671 14.1286 5.38671V6.88671ZM8.73186 10.34C9.59253 8.32763 11.6748 6.88671 14.1286 6.88671V5.38671C11.0839 5.38671 8.4532 7.17704 7.35271 9.75009L8.73186 10.34ZM6.89999 10.6581C7.23531 10.6581 7.55765 10.6982 7.86322 10.7733L8.22135 9.31671C7.7979 9.2126 7.35529 9.15814 6.89999 9.15814V10.6581ZM3.04999 14.3081C3.04999 12.3232 4.74121 10.6581 6.89999 10.6581V9.15814C3.97618 9.15814 1.54999 11.4327 1.54999 14.3081H3.04999ZM6.89999 17.9581C4.74121 17.9581 3.04999 16.2931 3.04999 14.3081H1.54999C1.54999 17.1835 3.97618 19.4581 6.89999 19.4581V17.9581ZM14.1286 17.9581H6.89999V19.4581H14.1286V17.9581ZM5.32278 9.38888C4.75637 8.1203 5.35795 6.62232 6.7393 6.05802L6.17203 4.66942C4.04885 5.53678 3.0228 7.91685 3.95311 10.0004L5.32278 9.38888ZM6.91466 4.55214L6.23714 3.03474L4.86747 3.64629L5.54499 5.1637L6.91466 4.55214ZM10.2218 5.11346L10.8644 3.58224L9.48129 3.00174L8.83863 4.53296L10.2218 5.11346ZM2.05182 7.19988L3.65264 7.8146L4.19036 6.4143L2.58954 5.79958L2.05182 7.19988ZM6.7393 6.05802C7.83389 5.61086 9.06001 5.90339 9.8105 6.68426L10.892 5.64485C9.71879 4.42416 7.84032 3.9879 6.17203 4.66942L6.7393 6.05802Z" fill="#E3E3E3"/>
</svg>