<svg xmlns="http://www.w3.org/2000/svg" width="27" height="22" viewBox="0 0 27 22" fill="none">
  <path d="M6.90785 19.7591L6.28535 19.3407H6.28535L6.90785 19.7591ZM7.87479 16.66L7.12479 16.6518V16.66H7.87479ZM7.89508 14.7862L8.64508 14.7943V14.7862H7.89508ZM20.0404 19.7741L20.6708 19.3678L20.6708 19.3678L20.0404 19.7741ZM19.1099 16.66L18.3599 16.6514V16.66H19.1099ZM19.1302 14.8791L19.8802 14.8876V14.8791H19.1302ZM7.53034 20.1774C8.08272 19.3554 8.62479 18.1383 8.62479 16.66H7.12479C7.12479 17.7679 6.71704 18.6984 6.28535 19.3407L7.53034 20.1774ZM8.62474 16.6681L8.64504 14.7943L7.14513 14.7781L7.12483 16.6518L8.62474 16.6681ZM20.6708 19.3678C20.2568 18.7254 19.8599 17.7848 19.8599 16.66H18.3599C18.3599 18.1391 18.88 19.3579 19.41 20.1804L20.6708 19.3678ZM19.8598 16.6685L19.8801 14.8876L18.3802 14.8705L18.3599 16.6514L19.8598 16.6685ZM19.8802 14.8791C19.8802 11.0213 17.0947 7.73279 13.4715 7.73279V9.23279C16.0988 9.23279 18.3802 11.6717 18.3802 14.8791H19.8802ZM19.7018 21.3925C20.3205 21.3925 20.6583 20.9124 20.7792 20.5912C20.9066 20.2531 20.9333 19.7751 20.6708 19.3678L19.41 20.1804C19.3775 20.13 19.3736 20.0912 19.3731 20.081C19.3726 20.0708 19.3739 20.0668 19.3755 20.0626C19.3763 20.0604 19.3876 20.0294 19.4316 19.9903C19.4815 19.9461 19.5757 19.8925 19.7018 19.8925V21.3925ZM8.64508 14.7862C8.64508 11.6301 10.8897 9.23279 13.4715 9.23279V7.73279C9.8938 7.73279 7.14508 10.9797 7.14508 14.7862H8.64508ZM7.24213 19.8925C7.3709 19.8925 7.46612 19.9481 7.5152 19.9925C7.55834 20.0315 7.56843 20.0616 7.5685 20.0618C7.56938 20.0642 7.5705 20.0667 7.56992 20.0761C7.56935 20.0854 7.56514 20.1256 7.53034 20.1774L6.28535 19.3407C6.01046 19.7498 6.0352 20.236 6.15954 20.5764C6.27709 20.8983 6.61354 21.3925 7.24213 21.3925V19.8925ZM19.7018 19.8925H7.24213V21.3925H19.7018V19.8925Z" fill="#396951"/>
  <path d="M1 13.4715H4.32574" stroke="#396951" stroke-width="1.5" stroke-linecap="round" stroke-linejoin="round"/>
  <path d="M4.32568 4.32562L6.67734 6.67727" stroke="#396951" stroke-width="1.5" stroke-linecap="round" stroke-linejoin="round"/>
  <path d="M22.6173 13.4715H25.943" stroke="#396951" stroke-width="1.5" stroke-linecap="round" stroke-linejoin="round"/>
  <path d="M20.1229 6.67746L22.4746 4.32581" stroke="#396951" stroke-width="1.5" stroke-linecap="round" stroke-linejoin="round"/>
  <path d="M13.4716 1L13.4716 4.32574" stroke="#396951" stroke-width="1.5" stroke-linecap="round" stroke-linejoin="round"/>
</svg>