<svg xmlns="http://www.w3.org/2000/svg" width="23" height="22" viewBox="0 0 23 22" fill="none">
  <path d="M8.04235 10.045L7.86328 10.7733C8.21988 10.8609 8.58752 10.6775 8.73193 10.3399L8.04235 10.045ZM3.95317 10.0004C4.12205 10.3786 4.56556 10.5483 4.94379 10.3794C5.32201 10.2106 5.49172 9.76704 5.32285 9.38881L3.95317 10.0004ZM6.45573 5.36366L6.1721 4.66936L6.45573 5.36366ZM5.54505 5.16364C5.71393 5.54186 6.15744 5.71157 6.53567 5.5427C6.91389 5.37382 7.0836 4.93031 6.91472 4.55208L5.54505 5.16364ZM6.23721 3.03468C6.06833 2.65645 5.62482 2.48674 5.24659 2.65562C4.86837 2.8245 4.69866 3.26801 4.86753 3.64623L6.23721 3.03468ZM8.83869 4.5329C8.67839 4.91483 8.85806 5.3544 9.24 5.51471C9.62194 5.67501 10.0615 5.49534 10.2218 5.1134L8.83869 4.5329ZM10.8645 3.58218C11.0248 3.20025 10.8451 2.76067 10.4632 2.60037C10.0812 2.44007 9.64166 2.61974 9.48135 3.00168L10.8645 3.58218ZM2.58961 5.79952C2.20292 5.65103 1.76908 5.84413 1.62059 6.23081C1.4721 6.61749 1.6652 7.05134 2.05188 7.19982L2.58961 5.79952ZM3.6527 7.81454C4.03938 7.96303 4.47323 7.76993 4.62171 7.38325C4.7702 6.99657 4.57711 6.56272 4.19042 6.41424L3.6527 7.81454ZM9.81056 6.6842C10.0976 6.98285 10.5724 6.99227 10.871 6.70524C11.1697 6.41822 11.1791 5.94344 10.8921 5.64479L9.81056 6.6842ZM19.9501 12.4224C19.9501 15.4484 17.3758 17.9581 14.1286 17.9581V19.4581C18.1408 19.4581 21.4501 16.3389 21.4501 12.4224H19.9501ZM14.1286 6.88665C17.3758 6.88665 19.9501 9.39634 19.9501 12.4224H21.4501C21.4501 8.50586 18.1408 5.38665 14.1286 5.38665V6.88665ZM8.73193 10.3399C9.59259 8.32757 11.6749 6.88665 14.1286 6.88665V5.38665C11.0839 5.38665 8.45326 7.17698 7.35277 9.75003L8.73193 10.3399ZM6.90005 10.6581C7.23537 10.6581 7.55771 10.6981 7.86328 10.7733L8.22142 9.31665C7.79796 9.21254 7.35535 9.15808 6.90005 9.15808V10.6581ZM3.05005 14.3081C3.05005 12.3231 4.74127 10.6581 6.90005 10.6581V9.15808C3.97624 9.15808 1.55005 11.4327 1.55005 14.3081H3.05005ZM6.90005 17.9581C4.74127 17.9581 3.05005 16.293 3.05005 14.3081H1.55005C1.55005 17.1835 3.97624 19.4581 6.90005 19.4581V17.9581ZM14.1286 17.9581H6.90005V19.4581H14.1286V17.9581ZM5.32285 9.38881C4.75643 8.12024 5.35801 6.62226 6.73936 6.05796L6.1721 4.66936C4.04891 5.53672 3.02286 7.91679 3.95317 10.0004L5.32285 9.38881ZM6.91472 4.55208L6.23721 3.03468L4.86753 3.64623L5.54505 5.16364L6.91472 4.55208ZM10.2218 5.1134L10.8645 3.58218L9.48135 3.00168L8.83869 4.5329L10.2218 5.1134ZM2.05188 7.19982L3.6527 7.81454L4.19042 6.41424L2.58961 5.79952L2.05188 7.19982ZM6.73936 6.05796C7.83395 5.6108 9.06007 5.90333 9.81056 6.6842L10.8921 5.64479C9.71885 4.4241 7.84038 3.98784 6.1721 4.66936L6.73936 6.05796Z" fill="#396951"/>
</svg>